<svg width="39" height="31" viewBox="0 0 39 31" fill="none" xmlns="http://www.w3.org/2000/svg">
<path d="M14.166 30.4219H0.445312V20.6074C0.445312 16.6361 0.787109 13.5111 1.4707 11.2324C2.18685 8.92122 3.48893 6.85417 5.37695 5.03125C7.26497 3.20833 9.67383 1.77604 12.6035 0.734375L15.2891 6.39844C12.5547 7.3099 10.5853 8.57943 9.38086 10.207C8.20898 11.8346 7.59049 13.9993 7.52539 16.7012H14.166V30.4219ZM37.0664 30.4219H23.3457V20.6074C23.3457 16.6035 23.6875 13.4622 24.3711 11.1836C25.0872 8.90495 26.3893 6.85417 28.2773 5.03125C30.1979 3.20833 32.6068 1.77604 35.5039 0.734375L38.1895 6.39844C35.4551 7.3099 33.4857 8.57943 32.2812 10.207C31.1094 11.8346 30.4909 13.9993 30.4258 16.7012H37.0664V30.4219Z" fill="white"/>
</svg>
